name D:\school\WTK\thesis\model\3dpredictsim\Results\MidTarsalJoint\Fal_s1_bCst_PF_Natali2010_ls150_MT_k1000_MTP_T10_ig24.mot
datacolumns 128
datarows 4
range 0.55802403 0.59150547
endheader
time	pelvis_tilt	pelvis_list	pelvis_rotation	pelvis_tx	pelvis_ty	pelvis_tz	hip_flexion_l	hip_adduction_l	hip_rotation_l	hip_flexion_r	hip_adduction_r	hip_rotation_r	knee_angle_l	knee_angle_r	ankle_angle_l	ankle_angle_r	subtalar_angle_l	subtalar_angle_r	mtj_angle_l	mtj_angle_r	mtp_angle_l	mtp_angle_r	lumbar_extension	lumbar_bending	lumbar_rotation	arm_flex_l	arm_add_l	arm_rot_l	arm_flex_r	arm_add_r	arm_rot_r	elbow_flex_l	elbow_flex_r	pro_sup_l	pro_sup_r	glut_med1_l/activation	glut_med2_l/activation	glut_med3_l/activation	glut_min1_l/activation	glut_min2_l/activation	glut_min3_l/activation	semimem_l/activation	semiten_l/activation	bifemlh_l/activation	bifemsh_l/activation	sar_l/activation	add_long_l/activation	add_brev_l/activation	add_mag1_l/activation	add_mag2_l/activation	add_mag3_l/activation	tfl_l/activation	pect_l/activation	grac_l/activation	glut_max1_l/activation	glut_max2_l/activation	glut_max3_l/activation	iliacus_l/activation	psoas_l/activation	quad_fem_l/activation	gem_l/activation	peri_l/activation	rect_fem_l/activation	vas_med_l/activation	vas_int_l/activation	vas_lat_l/activation	med_gas_l/activation	lat_gas_l/activation	soleus_l/activation	tib_post_l/activation	flex_dig_l/activation	flex_hal_l/activation	tib_ant_l/activation	per_brev_l/activation	per_long_l/activation	per_tert_l/activation	ext_dig_l/activation	ext_hal_l/activation	ercspn_l/activation	intobl_l/activation	extobl_l/activation	glut_med1_r/activation	glut_med2_r/activation	glut_med3_r/activation	glut_min1_r/activation	glut_min2_r/activation	glut_min3_r/activation	semimem_r/activation	semiten_r/activation	bifemlh_r/activation	bifemsh_r/activation	sar_r/activation	add_long_r/activation	add_brev_r/activation	add_mag1_r/activation	add_mag2_r/activation	add_mag3_r/activation	tfl_r/activation	pect_r/activation	grac_r/activation	glut_max1_r/activation	glut_max2_r/activation	glut_max3_r/activation	iliacus_r/activation	psoas_r/activation	quad_fem_r/activation	gem_r/activation	peri_r/activation	rect_fem_r/activation	vas_med_r/activation	vas_int_r/activation	vas_lat_r/activation	med_gas_r/activation	lat_gas_r/activation	soleus_r/activation	tib_post_r/activation	flex_dig_r/activation	flex_hal_r/activation	tib_ant_r/activation	per_brev_r/activation	per_long_r/activation	per_tert_r/activation	ext_dig_r/activation	ext_hal_r/activation	ercspn_r/activation	intobl_r/activation	extobl_r/activation	
          0.55802403	         -2.93017144	          1.94499606	         -5.06938208	          0.69753004	          0.92005185	          0.00173724	         29.70313480	          3.16681265	         -2.38145463	        -17.19643706	         -0.96121191	          6.39341170	        -13.13778662	         -6.95242175	          5.50305255	         -0.62925683	         -2.73693535	          9.35275221	         -0.01233985	          1.69254308	         -0.80137856	         16.30634690	         -2.07873419	         -0.17947003	          1.82694993	         -5.00422886	        -13.45854859	          5.52425453	          4.39071070	        -13.45318842	         14.94330557	         17.87373905	         34.50398586	         86.51662706	         86.51662706	          0.05000080	          0.05000045	          0.05930004	          0.05000021	          0.05000032	          0.05000133	          0.05930063	          0.05930067	          0.19664793	          0.05000033	          0.05000068	          0.11746207	          0.20796746	          0.19845753	          0.16801882	          0.11144661	          0.05930050	          0.05001467	          0.07126126	          0.05962006	          0.07033061	          0.10508464	          0.05000012	          0.05000016	          0.17895211	          0.05000171	          0.05000035	          0.05000066	          0.10897511	          0.10888498	          0.09401188	          0.05290831	          0.05000128	          0.05930031	          0.05000013	          0.05000072	          0.05000070	          0.50503880	          0.26375013	          0.16867475	          0.20031419	          0.47641048	          0.17764035	          0.05930033	          0.11783343	          0.10694665	          0.30795384	          0.10028540	          0.07932903	          0.31112095	          0.20779558	          0.11143197	          0.05000183	          0.05000036	          0.05000023	          0.06710402	          0.10356294	          0.05000066	          0.05000031	          0.05000035	          0.05000107	          0.05000078	          0.30641041	          0.05000173	          0.05000072	          0.05000496	          0.05000267	          0.05000137	          0.38241870	          0.60885372	          0.05000018	          0.05000061	          0.05000281	          0.19441579	          0.05000103	          0.05000062	          0.05000061	          0.29930001	          0.40490605	          0.32103341	          0.28086174	          0.27994765	          0.37061307	          0.05000005	          0.06064623	          0.15185666	          0.05000042	          0.05000009	          0.05000029	          0.05000001	          0.05000003	          0.05000006	
          0.56918451	         -2.92713910	          2.04023385	         -5.33992000	          0.71423118	          0.91907706	          0.00152971	         29.08755515	          3.54115892	         -2.19542119	        -17.05310575	         -1.25791902	          6.18576744	        -12.99166993	         -8.88055259	          4.95237207	         -1.29506731	         -3.14394622	         10.28614783	         -0.00281761	          1.35642483	         -0.80126794	         17.41190151	         -1.89102027	         -0.39607821	          1.89606280	         -5.83319357	        -13.45868627	          5.23304091	          4.13290693	        -13.46288317	         15.30967665	         17.48096944	         35.61797785	         86.51662706	         86.51662706	          0.05000596	          0.05000086	          0.05000025	          0.05000917	          0.05000238	          0.05000063	          0.05000027	          0.05000046	          0.17046025	          0.05000064	          0.05001871	          0.09904147	          0.17535159	          0.27656159	          0.19878714	          0.10826533	          0.05000035	          0.05001407	          0.06008555	          0.05027006	          0.05930048	          0.11908251	          0.05002405	          0.05000560	          0.51798957	          0.12140727	          0.05756277	          0.07033087	          0.19787281	          0.19818163	          0.17010728	          0.05000002	          0.05000006	          0.05000000	          0.05000036	          0.05000098	          0.05000118	          0.56426445	          0.22238546	          0.18601067	          0.37636539	          0.50092158	          0.16815282	          0.05000005	          0.09935300	          0.09017365	          0.25965595	          0.08455713	          0.06688750	          0.26232638	          0.17520597	          0.09395556	          0.05000305	          0.05000064	          0.05000073	          0.05657983	          0.08732091	          0.11574349	          0.10397786	          0.05283822	          0.05000858	          0.05000420	          0.25835467	          0.09451754	          0.05001233	          0.05000481	          0.05000300	          0.05000283	          0.32244202	          0.55293841	          0.05000182	          0.05148252	          0.05930050	          0.16498530	          0.05000484	          0.17489897	          0.14996868	          0.25235919	          0.34140250	          0.27172534	          0.24886497	          0.23604312	          0.31249020	          0.05000005	          0.05113487	          0.14614954	          0.05000021	          0.05000006	          0.05000027	          0.05000027	          0.07033081	          0.05000033	
          0.58034499	         -2.92014494	          2.13702808	         -5.58640690	          0.73123797	          0.91811746	          0.00134428	         28.34474288	          3.84097238	         -1.94656300	        -16.84112396	         -1.55241377	          5.96734917	        -13.33955845	        -10.92297134	          4.39977589	         -2.11394243	         -3.57859280	         11.17683754	         -0.09364226	          0.97823293	         -0.82955364	         18.41045777	         -1.68231443	         -0.62221689	          1.95387447	         -6.69372141	        -13.46603727	          4.99827979	          3.80434436	        -13.47078425	         15.61405885	         17.13294392	         36.70927279	         86.51662706	         86.51662706	          0.27245253	          0.05000015	          0.25785177	          0.05000038	          0.05000029	          0.26154852	          0.07445369	          0.05000119	          0.15247005	          0.05000017	          0.05000045	          0.08350873	          0.23477902	          0.23318729	          0.16761125	          0.12986452	          0.05000096	          0.05934662	          0.11898251	          0.05000016	          0.05000023	          0.10040635	          0.05930031	          0.05008253	          0.43675052	          0.10236642	          0.14756877	          0.05930052	          0.16683947	          0.16709987	          0.14342853	          0.05812503	          0.05929957	          0.05915095	          0.05000029	          0.05000130	          0.05000162	          0.50431104	          0.28013900	          0.15683768	          0.31734008	          0.52986136	          0.14178057	          0.05000008	          0.11368280	          0.07603124	          0.35414115	          0.07129561	          0.05639725	          0.22118467	          0.14772757	          0.07922006	          0.05000203	          0.05000064	          0.05000055	          0.05000017	          0.07362620	          0.15454493	          0.13998024	          0.05930233	          0.05929968	          0.05929712	          0.21783612	          0.08341783	          0.05001095	          0.05001026	          0.05000975	          0.05002937	          0.27187193	          0.52312361	          0.05498300	          0.05000129	          0.05000020	          0.13910982	          0.10726776	          0.14746922	          0.12644878	          0.21278035	          0.28785853	          0.22910920	          0.20983423	          0.19902346	          0.26348091	          0.05000002	          0.05000102	          0.17531387	          0.05000014	          0.05000006	          0.05000016	          0.05417529	          0.05930047	          0.05930018	
          0.59150547	         -2.91110169	          2.23582436	         -5.80107832	          0.74836891	          0.91718083	          0.00115127	         27.49519306	          4.09707782	         -1.68711666	        -16.53875484	         -1.84254528	          5.74726427	        -13.70447899	        -13.09769821	          3.96065436	         -3.08166823	         -4.01460769	         12.01071668	         -0.07236437	          0.59354167	         -0.81351282	         19.19907071	         -1.47147522	         -0.85724354	          2.00311341	         -7.54167985	        -13.47911565	          4.83243233	          3.43076869	        -13.48227618	         15.86959576	         16.80594013	         37.76754889	         86.51662706	         86.51662706	          0.32593712	          0.27471493	          0.33007280	          0.12877249	          0.22061980	          0.22052889	          0.06277684	          0.08879788	          0.12855741	          0.07033230	          0.05000426	          0.07041164	          0.19795741	          0.19661550	          0.14132438	          0.15120751	          0.05000043	          0.05003931	          0.10032230	          0.20907554	          0.15805585	          0.12731756	          0.05000013	          0.05000013	          0.36825267	          0.08631206	          0.12442502	          0.05000016	          0.14067410	          0.16044598	          0.12093468	          0.05000009	          0.05000016	          0.05000002	          0.05000002	          0.05000013	          0.05000012	          0.60598434	          0.29038393	          0.15964378	          0.57673086	          0.56342775	          0.26602596	          0.07362916	          0.09585345	          0.06410686	          0.30276455	          0.06011397	          0.05000009	          0.32234016	          0.12455877	          0.06679562	          0.05000384	          0.05000024	          0.05000019	          0.05000037	          0.06207954	          0.14316683	          0.11802668	          0.05000205	          0.05000177	          0.05000071	          0.22524665	          0.07033669	          0.05000089	          0.05000165	          0.05000095	          0.05000062	          0.22923289	          0.47907413	          0.05000012	          0.05000075	          0.05000040	          0.11733183	          0.09044816	          0.13181664	          0.11733120	          0.17940887	          0.24271215	          0.19317678	          0.17692486	          0.16780972	          0.22215793	          0.05789942	          0.10484223	          0.16473618	          0.05000079	          0.10900911	          0.05000128	          0.07703610	          0.05000007	          0.05000004	
